<?xml version="1.0" standalone="no"?>
<!DOCTYPE svg PUBLIC "-//W3C//DTD SVG 20010904//EN"
 "http://www.w3.org/TR/2001/REC-SVG-20010904/DTD/svg10.dtd">
<svg version="1.0" xmlns="http://www.w3.org/2000/svg"
 width="640.000000pt" height="640.000000pt" viewBox="0 0 640.000000 640.000000"
 preserveAspectRatio="xMidYMid meet">
<metadata>
Created by potrace 1.14, written by Peter Selinger 2001-2017
</metadata>
<g transform="translate(0.000000,640.000000) scale(0.100000,-0.100000)"
fill="#000000" stroke="none">
<path d="M5600 6374 c0 -14 4 -23 10 -19 6 3 10 15 10 26 0 10 -4 19 -10 19
-5 0 -10 -12 -10 -26z"/>
<path d="M5680 6380 c0 -12 4 -19 9 -16 5 3 12 -13 16 -37 l8 -42 12 45 13 45
2 -55 c1 -30 3 -82 5 -115 2 -33 4 -87 5 -120 1 -33 6 -68 11 -78 6 -9 11
-137 12 -285 l2 -267 -30 0 c-29 0 -30 2 -33 50 -4 69 -14 78 -76 70 -64 -9
-95 -24 -50 -25 29 0 34 -5 53 -53 27 -65 42 -194 30 -245 -12 -49 -17 -119
-9 -131 3 -6 15 -8 27 -5 17 5 24 16 29 51 5 33 10 43 21 39 8 -3 18 -6 22 -6
34 0 65 -295 50 -478 -11 -135 -9 -214 5 -224 6 -4 11 -46 12 -95 0 -48 3 -94
5 -102 2 -7 -2 -16 -8 -18 -9 -3 -13 7 -13 34 -1 35 -2 37 -15 19 -8 -11 -17
-36 -20 -55 -12 -70 -15 -76 -45 -89 -32 -15 -38 -33 -16 -51 11 -9 23 -8 51
4 71 29 71 29 79 -106 4 -67 5 -124 1 -127 -3 -4 -15 -7 -25 -7 -27 0 -25 -20
1 -20 11 0 25 -8 30 -16 10 -19 20 -541 11 -556 -4 -6 -24 -16 -44 -22 -35
-12 -38 -15 -38 -52 0 -34 3 -39 23 -39 31 0 57 29 58 66 0 29 0 29 10 5 5
-14 10 -43 10 -65 -1 -23 1 -90 3 -151 14 -378 18 -484 21 -520 2 -22 7 -89
10 -150 3 -60 10 -144 15 -185 5 -41 12 -152 15 -246 3 -94 7 -181 10 -192 5
-31 -16 -43 -92 -51 l-68 -8 67 -2 c86 -1 97 -18 16 -25 -114 -10 -594 -31
-718 -31 l-75 0 -3 54 c-5 87 0 97 63 116 59 17 67 40 11 29 -30 -5 -34 -3
-49 29 -16 32 -62 57 -69 36 -4 -9 -262 -89 -289 -89 -10 0 -19 5 -19 10 0 14
29 24 120 44 41 8 100 21 130 28 l55 13 -40 3 c-21 2 -57 -1 -80 -7 -22 -6
-69 -15 -105 -21 -36 -5 -121 -26 -190 -45 -69 -19 -126 -31 -128 -26 -1 4 -9
17 -17 27 -14 18 -14 17 -9 -12 5 -28 2 -33 -26 -47 -50 -26 -61 -16 -75 68
-9 51 -28 87 -73 137 -34 37 -132 108 -151 108 -4 0 -15 8 -24 18 -11 12 -34
18 -77 20 -74 4 -144 33 -191 81 -26 28 -44 37 -70 38 -18 0 -47 6 -64 12
l-30 12 33 30 c18 16 37 27 42 24 6 -4 10 -2 10 3 0 6 23 32 50 60 37 37 50
46 50 32 0 -10 9 -21 19 -25 12 -3 21 -17 23 -33 2 -15 4 34 5 108 2 151 2
151 -59 38 -16 -31 -43 -72 -60 -90 -138 -155 -156 -173 -203 -194 -57 -27
-74 -22 -30 9 51 35 141 130 170 177 15 25 54 80 86 122 33 43 59 82 59 88 0
5 7 10 15 10 8 0 15 4 15 10 0 5 11 20 24 33 52 52 142 411 140 557 0 25 -4
90 -8 145 -4 55 -6 145 -4 200 10 314 1 459 -44 715 -11 63 -24 140 -29 170
-5 30 -20 109 -35 175 -14 66 -28 135 -31 153 -3 18 -10 35 -15 38 -6 4 -8 -5
-4 -22 30 -139 35 -557 6 -539 -4 2 -10 35 -13 72 -24 250 -82 479 -172 675
-26 55 -44 106 -41 114 3 8 -1 29 -9 47 -7 17 -16 39 -20 47 -21 52 -162 211
-180 204 -7 -3 -30 11 -51 32 -85 80 -170 134 -211 134 -13 0 -13 -3 -3 -15
16 -19 11 -19 -75 4 -81 21 -93 40 -41 65 42 20 60 20 76 1 19 -23 43 -20 31
4 -6 10 -7 21 -4 25 13 12 -79 6 -113 -9 -34 -14 -54 -13 -54 4 0 17 63 52
102 57 50 7 63 14 25 14 -43 0 -80 18 -73 36 5 12 1 14 -17 9 -12 -4 -32 -13
-44 -21 -12 -8 -34 -14 -48 -14 -29 0 -30 -17 -2 -34 12 -8 21 -6 35 7 20 18
52 23 52 8 0 -6 -13 -18 -29 -27 -16 -10 -32 -26 -35 -37 -5 -19 -6 -19 -43 3
-90 55 -103 58 -152 44 -126 -35 -120 -32 -216 -97 -11 -8 -52 -33 -92 -56
-40 -24 -92 -60 -117 -82 -24 -21 -47 -39 -50 -39 -8 0 34 75 60 106 13 15 24
30 24 33 1 3 27 26 60 51 33 25 59 48 60 52 0 10 -76 -35 -110 -65 -23 -21
-35 -25 -48 -18 -17 9 -32 -2 -87 -67 -17 -20 -17 -22 -1 -16 19 7 12 -7 -83
-165 -28 -47 -53 -99 -56 -115 -16 -78 -67 -196 -100 -231 -40 -41 -45 -29
-19 40 9 22 26 82 39 133 13 52 34 109 49 130 14 21 26 44 26 52 0 23 -55 -37
-86 -93 -15 -29 -39 -63 -52 -77 -69 -74 -128 -277 -166 -575 -12 -96 -52
-331 -57 -340 -23 -37 -48 -335 -49 -577 0 -103 -5 -231 -10 -285 -5 -54 -10
-108 -10 -120 0 -13 -4 -23 -10 -23 -5 0 -10 17 -10 38 0 61 -15 71 -36 23
-13 -29 -21 -38 -30 -31 -8 8 -13 3 -17 -15 -3 -20 -1 -25 11 -20 12 4 13 0 7
-27 -12 -50 -5 -209 10 -243 14 -31 46 -86 55 -95 16 -16 30 -56 46 -128 11
-45 22 -82 25 -82 4 0 14 18 22 39 29 72 39 65 117 -82 48 -91 51 -102 45
-146 -5 -36 -17 -61 -50 -101 -24 -30 -51 -58 -60 -62 -8 -5 -15 -18 -15 -28
0 -11 -3 -20 -6 -20 -10 0 -43 41 -49 61 -4 11 -12 19 -18 19 -19 1 -71 82
-69 107 1 13 11 36 22 51 32 45 46 113 31 161 -6 23 -16 41 -21 41 -6 0 -10 8
-10 18 0 9 -7 31 -16 47 -9 17 -26 59 -38 95 -35 107 -52 75 -61 -114 -3 -60
-1 -135 5 -165 10 -59 64 -177 106 -233 39 -52 72 -100 101 -147 16 -24 43
-61 62 -82 22 -25 31 -45 27 -56 -4 -9 -1 -20 6 -24 7 -4 10 -11 6 -14 -4 -4
-29 5 -57 19 -49 24 -74 33 -178 61 -54 15 -186 18 -177 4 2 -4 -7 -16 -21
-26 -64 -45 -148 -148 -177 -218 -40 -95 -63 -236 -53 -323 8 -75 26 -164 36
-177 4 -5 14 -44 23 -85 9 -41 40 -148 71 -237 57 -169 67 -215 41 -194 -11
10 -15 8 -18 -6 -5 -23 -53 50 -81 122 -10 28 -38 91 -62 140 -24 50 -68 143
-100 208 -41 86 -59 116 -68 109 -7 -5 -48 -10 -92 -11 -44 -1 -118 -3 -165
-6 -47 -3 -125 -7 -175 -10 -319 -18 -549 -26 -569 -21 -13 3 -28 18 -34 33
-8 19 -13 273 -18 765 -3 405 -10 752 -14 770 -4 18 -8 -645 -9 -1474 l-1
-1508 2003 1 c1126 0 1993 4 1982 9 -11 5 -33 9 -50 9 -43 1 -175 41 -207 63
-14 10 -31 18 -37 18 -6 0 -11 5 -11 11 0 6 -9 22 -20 36 -11 14 -20 34 -20
43 0 10 -7 21 -16 24 -13 5 -16 18 -12 70 2 37 10 70 18 78 8 9 21 25 29 36 8
11 20 18 28 15 7 -3 20 0 28 7 16 13 32 6 58 -27 19 -24 67 -53 87 -53 13 0
55 47 55 63 2 38 31 102 65 146 22 28 40 52 40 55 0 7 98 206 120 246 l20 35
0 -38 c0 -21 -4 -36 -9 -33 -5 3 -11 0 -14 -8 -7 -19 24 -31 35 -14 8 14 10 9
12 -45 1 -19 -2 -26 -11 -23 -16 6 -17 -18 -2 -45 14 -26 2 -75 -23 -99 -16
-15 -21 -33 -23 -93 -2 -42 -6 -80 -10 -87 -4 -6 -4 -14 -1 -17 7 -8 31 14 31
28 0 5 2 8 5 7 3 -1 15 4 26 10 17 9 23 25 29 69 4 33 14 65 23 74 10 8 35 60
56 115 22 54 51 126 66 159 15 33 32 71 39 85 6 14 15 32 19 40 26 45 30 66
37 172 4 63 11 121 15 128 12 19 31 -23 30 -68 0 -20 2 -52 6 -69 4 -22 2 -33
-5 -33 -6 0 -11 -11 -11 -24 0 -13 -8 -34 -19 -47 -10 -13 -24 -41 -32 -61
-12 -34 -11 -39 5 -51 27 -19 21 -132 -9 -167 -7 -8 -16 -32 -20 -52 -4 -21
-11 -38 -16 -38 -5 0 -9 -6 -9 -14 0 -7 -13 -40 -30 -72 -16 -32 -30 -64 -30
-70 0 -7 -7 -25 -15 -40 -8 -16 -15 -37 -15 -46 0 -12 -6 -16 -17 -12 -17 5
-17 5 0 -6 37 -24 80 -2 105 54 11 24 15 26 28 15 13 -10 15 -25 10 -65 -6
-55 0 -70 21 -53 21 18 16 -6 -10 -49 -12 -20 -28 -48 -35 -62 -55 -115 -91
-166 -128 -185 -21 -11 -41 -23 -44 -26 -3 -3 -18 -11 -35 -17 -22 -7 282 -11
1093 -11 l1122 -1 0 855 0 855 -24 -6 c-19 -4 -25 -1 -29 18 -12 49 -35 479
-42 803 -5 229 -19 556 -45 1080 -6 110 -21 427 -35 705 -13 278 -27 539 -30
580 -3 41 -10 179 -15 305 -6 127 -15 311 -20 410 -11 203 -17 335 -25 545 -8
211 -13 250 -32 250 -17 0 -16 -42 2 -365 8 -135 33 -664 55 -1165 11 -245 24
-533 30 -640 5 -107 14 -296 20 -420 6 -124 15 -310 20 -415 6 -104 17 -325
25 -490 8 -165 20 -381 25 -480 5 -99 13 -302 16 -451 l7 -271 -82 -7 c-46 -4
-85 -5 -88 -2 -3 3 0 12 7 21 10 12 7 18 -19 32 -24 14 -32 27 -36 58 -13 96
-26 356 -35 700 -5 204 -14 447 -19 540 -6 94 -13 251 -16 350 -4 99 -13 290
-21 425 -8 135 -19 346 -24 470 -5 124 -16 369 -25 545 -8 176 -19 439 -25
585 -5 146 -12 285 -15 310 -2 25 -7 128 -10 230 -6 215 -13 298 -26 306 -12
7 -11 48 2 61 6 6 9 23 7 39 l-3 29 -97 3 c-94 3 -98 2 -98 -18z m-3470 -1152
c0 -13 -25 -90 -55 -172 -30 -82 -55 -157 -55 -165 -1 -13 -3 -12 -11 3 -19
31 -4 117 36 216 41 102 62 140 76 140 5 0 9 -10 9 -22z m1447 -89 c11 -23 52
-189 47 -189 -19 0 -34 17 -34 39 0 14 -11 50 -25 79 -27 58 -33 106 -12 100
6 -3 17 -15 24 -29z m11 -182 c13 -37 16 -67 5 -67 -3 0 -15 7 -25 17 -17 15
-18 15 -18 -10 0 -17 -5 -27 -15 -27 -19 0 -19 10 0 46 8 16 15 36 15 45 0 16
9 29 20 29 3 0 11 -15 18 -33z m-1635 -94 c-3 -32 -12 -67 -18 -78 -7 -11 -18
-44 -25 -73 -7 -28 -16 -54 -21 -57 -14 -9 2 107 23 165 11 30 22 65 25 78 11
45 21 20 16 -35z m1474 -616 c-3 -23 -11 -64 -18 -92 -12 -49 -13 -49 -20 -20
-6 29 -7 29 -8 4 -1 -21 -6 -26 -25 -26 -23 0 -23 0 -11 41 19 59 33 97 52
133 14 27 19 30 26 17 5 -9 7 -34 4 -57z m2313 -30 c0 -7 -28 -2 -36 5 -3 4
-3 12 1 17 4 8 11 6 21 -3 8 -8 14 -17 14 -19z m-2746 -25 c-4 -15 -6 -31 -5
-35 2 -11 -32 -120 -39 -127 -11 -9 -40 -78 -40 -93 0 -25 32 -9 60 28 14 19
31 35 38 35 19 0 48 31 57 60 9 31 47 90 59 90 4 0 6 -42 3 -93 -4 -51 -3 -97
1 -104 14 -22 62 -12 84 18 12 16 31 32 42 35 11 4 29 17 39 30 10 13 22 24
27 24 12 0 24 -40 21 -67 -3 -28 16 -63 34 -63 8 0 27 17 42 38 15 20 30 39
33 42 3 3 11 16 17 30 11 24 12 25 12 3 1 -13 -8 -32 -19 -43 -22 -22 -27 -35
-8 -24 8 5 9 2 5 -10 -4 -10 -7 -24 -7 -32 0 -9 -11 -14 -30 -14 -16 0 -30 -4
-30 -10 0 -5 -7 -10 -15 -10 -18 0 -115 -68 -115 -81 0 -5 -7 -9 -15 -9 -8 0
-15 -9 -15 -20 0 -11 7 -20 15 -20 8 0 15 -9 15 -19 0 -14 13 -24 45 -37 30
-11 42 -21 36 -27 -11 -11 -4 -37 10 -37 5 0 9 7 9 15 0 8 7 15 15 15 8 0 15
7 15 15 0 8 6 15 13 15 8 0 30 16 50 36 38 39 68 41 101 9 17 -17 46 -20 46
-5 0 6 12 10 26 10 20 0 24 -4 19 -19 -10 -33 -36 -155 -45 -211 -9 -52 -31
-111 -83 -220 -40 -83 -194 -217 -350 -305 -53 -30 -102 -55 -107 -55 -6 0
-36 -13 -68 -29 l-58 -29 -39 24 c-22 13 -58 29 -80 35 -61 15 -95 30 -90 39
3 5 -3 6 -13 3 -21 -5 -130 56 -185 104 -20 18 -40 33 -45 33 -4 0 -31 22 -59
49 l-53 49 1 139 c0 76 4 158 8 183 l8 45 2 -40 c2 -31 4 -35 10 -20 6 14 17
20 37 20 22 0 30 5 32 22 3 21 3 21 47 -5 59 -36 64 -52 19 -52 -42 0 -37 -16
6 -22 20 -3 30 0 30 8 0 7 10 20 21 28 28 19 20 53 -21 98 -17 18 -30 38 -30
45 0 17 -32 53 -47 53 -7 0 -10 -7 -6 -17 5 -12 1 -11 -15 5 -12 12 -32 22
-44 22 -21 0 -21 -2 7 -20 31 -20 28 -24 -14 -20 -22 2 -23 -1 -18 -36 l6 -37
-21 23 c-18 20 -20 27 -11 66 6 24 6 44 2 44 -5 0 -9 9 -9 21 0 19 1 19 22 5
12 -9 32 -16 44 -16 12 0 24 -5 26 -12 3 -8 33 -12 91 -12 55 0 87 -4 87 -10
0 -6 10 8 22 32 17 32 27 42 43 40 11 -1 25 1 31 5 6 4 26 0 43 -9 18 -9 35
-14 38 -11 5 6 1 12 -42 61 -29 33 -31 40 -11 33 8 -3 17 1 20 9 3 9 10 13 15
9 6 -3 9 7 8 22 -2 22 -9 30 -35 38 -41 12 -41 22 1 40 36 15 84 63 167 169
53 67 70 73 54 18z m-1194 -147 c0 -14 -4 -25 -8 -25 -5 0 -20 -18 -35 -40
-35 -54 -48 -122 -32 -170 7 -22 6 -23 -9 -11 -25 21 -22 119 6 176 12 25 25
45 30 45 4 0 5 7 1 16 -6 16 12 34 35 34 6 0 12 -11 12 -25z m894 -7 c-18 -33
-40 -48 -66 -48 -18 0 -27 4 -23 10 4 6 14 8 24 5 11 -3 26 4 41 20 26 27 35
32 24 13z m1036 -42 c0 -2 -11 -39 -25 -82 -14 -43 -25 -86 -25 -95 0 -9 -6
-21 -13 -27 -10 -9 -23 2 -57 45 -39 50 -41 56 -25 65 13 8 14 12 5 18 -9 6
-9 13 1 31 7 15 14 19 17 11 2 -6 13 -12 24 -12 17 0 19 -4 14 -25 -4 -14 -3
-25 1 -25 9 0 49 56 59 83 5 14 24 25 24 13z m-220 -61 c0 -9 -6 -12 -15 -9
-8 4 -12 10 -9 15 8 14 24 10 24 -6z m-822 -14 c11 -6 6 -10 -17 -13 -18 -3
-34 -1 -37 4 -3 4 -32 8 -65 8 -32 0 -59 4 -59 9 0 10 158 3 178 -8z m859 -50
c1 -15 -3 -18 -20 -13 -12 3 -31 11 -42 19 -18 12 -16 13 21 13 32 0 40 -4 41
-19z m-60 -7 c-3 -3 -12 -4 -19 -1 -8 3 -5 6 6 6 11 1 17 -2 13 -5z m-1659
-26 c12 -16 10 -188 -3 -189 -5 -1 -12 5 -16 12 -9 17 -22 51 -23 61 -1 4 -7
13 -13 20 -18 17 -16 64 4 88 20 23 36 25 51 8z m1897 -245 c-3 -71 -11 -168
-16 -217 -10 -94 -8 -111 11 -76 10 18 21 79 63 335 3 17 3 -22 1 -86 -3 -63
-11 -152 -18 -196 -7 -44 -11 -106 -8 -137 3 -37 1 -56 -7 -56 -6 0 -11 -12
-11 -28 0 -15 -7 -37 -15 -49 -10 -14 -12 -24 -5 -28 6 -4 5 -12 -5 -21 -8 -9
-15 -26 -15 -39 0 -13 -2 -29 -3 -37 -2 -7 -2 -10 0 -5 3 4 9 7 15 7 11 0 6
-29 -13 -77 -6 -15 -12 -43 -14 -61 -1 -18 -7 -38 -13 -44 -7 -7 -12 -20 -12
-30 0 -10 -18 -50 -40 -89 -22 -39 -40 -76 -40 -82 -1 -16 -39 -65 -40 -50 0
6 7 19 15 27 12 11 13 20 6 34 -12 22 -14 127 -5 195 4 26 3 47 -2 47 -18 0
-45 -41 -39 -60 3 -10 1 -21 -5 -25 -6 -4 -8 -15 -5 -26 7 -21 -10 -27 -18 -6
-2 6 -7 9 -11 6 -4 -4 0 -14 9 -22 11 -12 15 -38 15 -106 0 -114 -16 -185 -51
-223 -28 -29 -28 -29 -61 -12 -70 36 -88 54 -82 80 6 23 4 24 -19 19 -33 -9
-86 23 -65 39 15 13 38 60 38 81 0 24 -15 17 -28 -12 -11 -26 -11 -26 -6 12 3
22 8 54 11 70 3 17 5 46 4 65 -2 78 -9 225 -10 228 -5 11 4 16 25 14 23 -3 24
-2 14 17 -12 24 -21 26 -39 9 -11 -11 -12 -9 -3 8 6 12 21 24 32 27 17 4 19 3
9 -9 -9 -11 -8 -14 5 -14 9 0 16 8 16 20 0 10 16 35 36 54 28 27 42 34 60 30
21 -5 24 -3 24 24 0 31 21 62 43 62 13 1 76 95 121 183 16 31 35 57 42 57 17
0 27 17 18 31 -4 8 -9 7 -15 -2 -12 -20 -22 -3 -15 26 7 29 36 34 36 6 0 -30
17 -34 34 -9 18 25 21 58 6 58 -5 0 -10 -4 -10 -10 0 -5 -4 -10 -10 -10 -19 0
-11 59 10 72 14 9 20 24 20 50 0 44 15 88 31 88 8 0 9 -36 4 -127z m-1288 81
c-3 -3 -12 -4 -19 -1 -8 3 -5 6 6 6 11 1 17 -2 13 -5z m43 -44 c0 -5 -4 -10
-10 -10 -5 0 -10 5 -10 10 0 6 5 10 10 10 6 0 10 -4 10 -10z m-766 -642 c5
-29 -14 -132 -27 -145 -7 -7 -8 153 -1 171 9 23 21 11 28 -26z m-107 -20 c-3
-8 -6 -5 -6 6 -1 11 2 17 5 13 3 -3 4 -12 1 -19z m1593 -18 c-8 -5 -10 -18 -5
-40 11 -52 8 -272 -5 -335 -15 -74 -35 -121 -55 -128 -12 -5 -15 2 -15 31 0
53 -56 273 -72 283 -7 5 -18 9 -24 9 -7 0 -25 7 -40 15 -16 8 -38 15 -49 15
-19 1 -19 1 -2 11 9 6 15 15 11 21 -16 25 129 113 201 122 20 3 39 7 42 10 3
3 10 3 15 -1 6 -3 5 -8 -2 -13z m-755 -46 c16 -24 16 -26 -2 -40 -17 -13 -16
-14 11 -12 17 2 31 -2 34 -11 3 -9 -1 -11 -17 -6 -15 5 -21 2 -21 -9 0 -9 -4
-16 -9 -16 -24 0 -41 14 -41 35 0 21 19 85 25 85 1 0 10 -12 20 -26z m55 -94
c12 -8 9 -10 -13 -10 -16 0 -26 4 -22 10 8 12 16 12 35 0z m549 -122 c5 -18
12 -58 16 -88 3 -30 8 -68 11 -85 4 -23 3 -26 -5 -15 -6 8 -11 31 -11 50 0 19
-9 65 -19 103 -19 66 -12 98 8 35z m483 -85 c7 -9 7 -13 0 -13 -12 0 -22 25
-21 48 1 13 3 12 6 -3 3 -11 10 -26 15 -32z m-1964 4 c14 -39 15 -57 4 -57 -8
0 -32 65 -32 84 0 18 18 2 28 -27z m564 -174 c7 -9 7 -13 0 -13 -14 0 -62 69
-62 89 0 7 12 -4 26 -25 15 -21 31 -45 36 -51z m-205 50 c3 -10 13 -26 22 -36
14 -17 14 -20 -4 -33 -11 -8 -27 -20 -35 -27 -21 -16 -89 -53 -123 -66 -26
-10 -26 -9 8 25 19 19 35 38 35 43 0 4 11 20 25 35 14 15 28 38 31 51 7 29 32
33 41 8z m1150 -40 c-3 -10 -5 -4 -5 12 0 17 2 24 5 18 2 -7 2 -21 0 -30z
m1543 -618 c-14 -8 -38 -14 -55 -14 l-30 0 35 13 c19 8 44 14 55 14 17 1 17
-1 -5 -13z m-1188 -25 c216 -21 311 -32 336 -41 18 -5 8 -7 -33 -3 -33 2 -132
9 -220 14 -95 5 -176 15 -200 24 -36 13 -37 15 -13 15 15 1 74 -4 130 -9z
m128 -50 c30 -5 87 -12 125 -15 176 -16 358 -45 372 -59 12 -11 -28 -18 -84
-13 -279 21 -490 54 -578 92 -27 11 -24 12 40 8 39 -2 95 -8 125 -13z m986 5
c-11 -8 -24 -15 -28 -15 -5 0 -30 -10 -56 -21 -25 -12 -51 -22 -58 -23 -7 -1
-18 -7 -25 -12 -30 -24 -81 -32 -166 -27 -48 2 -90 7 -92 9 -2 2 29 4 70 5 89
1 73 -3 234 53 72 25 132 46 135 46 3 0 -4 -7 -14 -15z m-439 -91 c-3 -3 -12
-4 -19 -1 -8 3 -5 6 6 6 11 1 17 -2 13 -5z m73 -459 c15 -18 5 -141 -17 -200
-8 -22 -14 -54 -14 -72 1 -17 -4 -35 -10 -39 -9 -5 -11 6 -6 44 4 31 2 52 -3
52 -6 0 -10 -8 -10 -17 0 -9 -3 -14 -6 -10 -7 7 14 179 28 225 11 35 19 39 38
17z m240 -160 c0 -8 -4 -15 -10 -15 -5 0 -7 7 -4 15 4 8 8 15 10 15 2 0 4 -7
4 -15z m-40 -95 c0 -5 -4 -10 -10 -10 -5 0 -10 5 -10 10 0 6 5 10 10 10 6 0
10 -4 10 -10z m-249 -177 c-12 -20 -14 -14 -5 12 4 9 9 14 11 11 3 -2 0 -13
-6 -23z m1809 -187 c0 -18 -38 -46 -62 -46 -21 0 -24 30 -6 48 17 17 68 15 68
-2z"/>
<path d="M2951 3904 c0 -11 3 -14 6 -6 3 7 2 16 -1 19 -3 4 -6 -2 -5 -13z"/>
<path d="M3605 3733 c-11 -3 -27 -11 -35 -18 -8 -7 -25 -16 -38 -20 -28 -8
-19 -25 14 -25 14 0 22 4 19 10 -3 5 0 7 8 5 14 -6 67 30 67 46 0 9 -3 10 -35
2z"/>
<path d="M3480 3661 c0 -10 -7 -21 -15 -25 -22 -8 -19 -54 5 -68 11 -7 20 -21
20 -30 0 -24 22 -23 38 3 l13 20 20 -23 20 -23 -5 58 c-4 45 -2 57 10 57 8 0
14 7 14 15 0 17 -16 20 -25 5 -11 -17 -50 -11 -63 10 -15 25 -32 26 -32 1z"/>
<path d="M2695 3650 c-3 -5 1 -20 9 -32 16 -22 16 -22 16 10 0 31 -12 42 -25
22z"/>
<path d="M3617 3654 c-2 -5 -5 -38 -5 -74 l0 -65 8 51 c4 29 10 56 13 61 3 5
2 15 -2 22 -5 7 -11 9 -14 5z"/>
<path d="M3400 3593 c1 -11 26 -43 34 -43 3 0 6 11 6 25 0 18 -5 25 -20 25
-11 0 -20 -3 -20 -7z"/>
<path d="M3440 3530 c0 -6 7 -10 15 -10 8 0 15 2 15 4 0 2 -7 6 -15 10 -8 3
-15 1 -15 -4z"/>
<path d="M3520 3480 c0 -13 5 -17 20 -13 11 3 20 9 20 13 0 4 -9 10 -20 13
-15 4 -20 0 -20 -13z"/>
<path d="M3521 3404 c0 -11 3 -14 6 -6 3 7 2 16 -1 19 -3 4 -6 -2 -5 -13z"/>
<path d="M3560 3390 c0 -5 5 -10 10 -10 6 0 10 5 10 10 0 6 -4 10 -10 10 -5 0
-10 -4 -10 -10z"/>
<path d="M3004 3126 c-8 -22 0 -99 11 -102 14 -5 61 33 53 42 -4 4 -14 1 -22
-5 -10 -8 -16 -9 -21 -1 -10 16 5 31 24 25 22 -7 46 19 37 40 -7 19 -75 21
-82 1z"/>
<path d="M3735 3318 c-4 -57 -9 -136 -10 -177 -3 -71 -2 -73 16 -55 21 21 25
67 21 232 -1 56 -6 102 -11 102 -5 0 -12 -46 -16 -102z"/>
<path d="M3651 3220 c-13 -123 -28 -336 -25 -340 10 -9 24 26 25 60 0 19 4 78
8 130 4 52 4 111 0 130 -4 19 -7 28 -8 20z"/>
<path d="M3501 2874 c0 -11 3 -14 6 -6 3 7 2 16 -1 19 -3 4 -6 -2 -5 -13z"/>
<path d="M3706 2838 c-7 -18 -11 -35 -9 -37 6 -8 32 33 33 52 0 26 -8 21 -24
-15z"/>
<path d="M3654 2687 c-8 -34 1 -46 14 -20 6 11 7 25 2 33 -6 10 -10 7 -16 -13z"/>
<path d="M3650 2625 c0 -8 5 -15 10 -15 6 0 10 7 10 15 0 8 -4 15 -10 15 -5 0
-10 -7 -10 -15z"/>
<path d="M3427 2565 c-4 -8 -2 -17 3 -20 6 -4 10 3 10 14 0 25 -6 27 -13 6z"/>
<path d="M6215 6133 c4 -159 12 -276 18 -288 6 -11 13 -67 15 -125 10 -284 20
-433 33 -497 6 -29 8 -57 5 -61 -3 -5 -1 -36 4 -70 6 -33 12 -242 15 -464 3
-222 7 -565 10 -763 2 -198 9 -436 14 -530 6 -93 15 -276 21 -405 6 -129 15
-314 20 -410 5 -96 12 -251 16 -345 3 -93 8 -172 10 -174 2 -2 4 986 4 2197
l0 2202 -96 0 -96 0 7 -267z"/>
<path d="M5177 6353 c3 -10 9 -22 12 -28 3 -5 6 -13 6 -17 0 -5 4 -8 9 -7 5 0
13 -5 17 -13 6 -9 8 -6 6 10 -2 13 -10 28 -17 32 -27 17 -1 23 46 11 33 -9 50
-9 58 -1 7 7 3 10 -14 8 -14 0 -43 4 -65 10 -55 16 -66 15 -58 -5z"/>
<path d="M5423 6308 c2 -7 12 -13 22 -13 10 0 20 6 23 13 2 7 -6 12 -23 12
-17 0 -25 -5 -22 -12z"/>
<path d="M5330 6240 c-8 -5 -10 -10 -5 -10 6 0 17 5 25 10 8 5 11 10 5 10 -5
0 -17 -5 -25 -10z"/>
<path d="M5315 6190 c-3 -5 1 -10 9 -10 9 0 16 5 16 10 0 6 -4 10 -9 10 -6 0
-13 -4 -16 -10z"/>
<path d="M5225 6030 c3 -5 8 -10 11 -10 2 0 4 5 4 10 0 6 -5 10 -11 10 -5 0
-7 -4 -4 -10z"/>
<path d="M2610 5774 c-25 -9 -49 -21 -55 -26 -7 -8 -6 -8 4 -3 11 6 13 4 8 -8
-5 -14 -2 -14 27 2 18 10 48 22 67 26 19 4 41 11 49 16 26 15 -52 9 -100 -7z"/>
<path d="M3165 5620 c-3 -5 1 -10 10 -10 9 0 13 5 10 10 -3 6 -8 10 -10 10 -2
0 -7 -4 -10 -10z"/>
<path d="M5555 5460 c-8 -13 4 -166 15 -196 5 -12 6 -25 3 -28 -4 -3 -1 -6 5
-6 23 0 32 41 32 139 0 100 0 101 -24 101 -14 0 -28 -4 -31 -10z"/>
<path d="M2180 5429 c0 -5 5 -7 10 -4 6 3 10 8 10 11 0 2 -4 4 -10 4 -5 0 -10
-5 -10 -11z"/>
<path d="M2155 5400 c-3 -5 -1 -10 4 -10 6 0 11 5 11 10 0 6 -2 10 -4 10 -3 0
-8 -4 -11 -10z"/>
<path d="M5010 4809 c-24 -7 -24 -7 -2 -8 19 -1 22 -6 22 -41 0 -33 3 -40 20
-40 19 0 21 4 24 66 1 21 -32 33 -64 23z"/>
<path d="M5220 4781 c0 -11 -4 -23 -10 -26 -24 -15 -9 -32 30 -32 27 0 40 4
40 13 0 8 -5 14 -11 14 -6 0 -9 7 -5 15 3 8 -3 19 -14 25 -26 14 -30 13 -30
-9z"/>
<path d="M5080 4732 c0 -5 8 -16 18 -25 16 -14 18 -13 35 9 l18 24 -36 0 c-19
0 -35 -4 -35 -8z"/>
<path d="M4690 4410 c-8 -5 -10 -10 -5 -10 6 0 17 5 25 10 8 5 11 10 5 10 -5
0 -17 -5 -25 -10z"/>
<path d="M5205 4378 c4 -13 8 -41 9 -63 2 -41 15 -50 26 -19 10 27 -11 104
-28 104 -10 0 -12 -6 -7 -22z"/>
<path d="M5563 4377 c5 -15 37 -22 37 -9 0 5 -9 12 -21 15 -13 3 -19 1 -16 -6z"/>
<path d="M5570 4305 c-7 -9 -10 -18 -7 -21 10 -11 37 5 37 21 0 19 -14 19 -30
0z"/>
<path d="M4388 4269 c-21 -12 -24 -99 -8 -214 16 -106 31 -106 29 0 0 50 4
103 10 118 6 16 11 46 11 68 0 41 -10 47 -42 28z"/>
<path d="M5220 4236 c0 -8 9 -16 19 -19 13 -3 18 -1 14 8 -7 19 -33 27 -33 11z"/>
<path d="M5556 4190 c-21 -19 -36 -26 -38 -19 -3 9 -12 9 -33 2 l-30 -10 27
-6 c15 -4 30 -16 33 -27 9 -28 43 -46 51 -26 3 8 1 24 -5 35 -13 23 0 35 27
27 19 -6 82 20 82 33 0 7 -47 21 -71 21 -5 0 -24 -14 -43 -30z"/>
<path d="M5565 4000 c-12 -4 -27 -15 -34 -24 -11 -13 -11 -17 3 -22 19 -7 21
-30 4 -38 -7 -3 -2 -4 12 -3 18 1 26 9 28 27 2 14 8 29 13 35 11 11 12 35 2
34 -5 0 -17 -4 -28 -9z"/>
<path d="M5460 3940 c0 -5 4 -10 9 -10 6 0 13 5 16 10 3 6 -1 10 -9 10 -9 0
-16 -4 -16 -10z"/>
<path d="M5540 3875 c0 -23 -9 -30 -35 -26 -5 1 1 -7 15 -18 30 -24 42 -18 34
15 -4 14 -2 24 5 24 16 0 13 17 -4 24 -11 4 -15 -1 -15 -19z"/>
<path d="M4445 3870 c-3 -11 -11 -20 -16 -20 -12 0 -11 -24 3 -55 12 -27 28
-33 28 -10 0 7 8 18 17 23 15 9 15 12 -1 46 -20 42 -22 43 -31 16z"/>
<path d="M5511 3741 c-35 -9 -42 -36 -8 -27 30 7 43 -7 22 -24 -8 -7 -15 -17
-15 -22 0 -5 -9 -22 -21 -36 -15 -20 -17 -28 -7 -31 7 -2 26 -17 42 -33 38
-38 51 -23 25 29 -22 45 -19 63 10 63 28 0 30 8 13 51 -15 40 -19 42 -61 30z"/>
<path d="M5666 3735 c-3 -8 -1 -15 4 -15 13 0 22 18 11 24 -5 3 -11 -1 -15 -9z"/>
<path d="M1592 3595 c0 -16 2 -22 5 -12 2 9 2 23 0 30 -3 6 -5 -1 -5 -18z"/>
<path d="M5592 3570 c0 -14 2 -19 5 -12 2 6 2 18 0 25 -3 6 -5 1 -5 -13z"/>
<path d="M1585 3521 c-8 -27 5 -162 16 -155 8 4 3 164 -6 172 -2 2 -6 -6 -10
-17z"/>
<path d="M5018 3529 c-27 -16 -21 -26 19 -32 44 -8 53 -3 46 23 -6 22 -36 26
-65 9z"/>
<path d="M5395 3520 c3 -5 8 -10 11 -10 2 0 4 5 4 10 0 6 -5 10 -11 10 -5 0
-7 -4 -4 -10z"/>
<path d="M5270 3490 c0 -5 5 -10 11 -10 5 0 7 5 4 10 -3 6 -8 10 -11 10 -2 0
-4 -4 -4 -10z"/>
<path d="M4148 3461 c-9 -14 -16 -17 -24 -10 -13 10 -14 3 -27 -109 -5 -41 19
-57 74 -48 31 5 39 3 39 -9 0 -8 -4 -15 -10 -15 -24 0 -7 -32 25 -47 25 -12
35 -23 35 -39 0 -28 16 -40 34 -25 7 6 21 9 30 5 14 -5 16 9 18 135 1 78 2
149 2 159 1 24 -35 27 -75 7 -29 -16 -33 -16 -41 -1 -13 23 -65 21 -80 -3z"/>
<path d="M5761 3464 c0 -11 3 -14 6 -6 3 7 2 16 -1 19 -3 4 -6 -2 -5 -13z"/>
<path d="M5795 3470 c3 -5 8 -10 11 -10 2 0 4 5 4 10 0 6 -5 10 -11 10 -5 0
-7 -4 -4 -10z"/>
<path d="M5275 3461 c-3 -5 -1 -12 5 -16 5 -3 10 1 10 9 0 18 -6 21 -15 7z"/>
<path d="M5468 3428 c-24 -19 -31 -65 -12 -72 25 -10 34 -7 34 9 0 20 46 20
53 1 3 -8 3 -31 0 -50 -3 -20 -3 -36 -1 -36 18 0 68 34 68 46 0 8 10 14 25 14
23 0 25 3 25 48 l0 47 -28 -32 c-30 -36 -69 -44 -79 -15 -7 19 -43 51 -59 52
-5 0 -17 -6 -26 -12z"/>
<path d="M4718 3383 c-34 -39 -39 -60 -27 -110 7 -27 16 -52 20 -57 12 -14 32
8 34 36 1 14 9 24 21 27 10 2 23 10 29 18 9 12 13 10 23 -12 7 -15 11 -28 10
-29 -42 -17 -63 -65 -39 -89 6 -6 11 -24 11 -39 0 -25 3 -28 34 -28 19 0 38 4
41 10 11 18 9 109 -4 123 -9 12 -5 16 24 21 20 4 39 14 42 22 3 7 11 14 19 14
8 0 14 7 14 15 0 24 28 30 49 11 24 -21 32 -9 25 35 -6 33 -8 34 -55 36 -34 2
-69 -5 -111 -22 l-62 -25 -29 30 c-34 34 -48 37 -69 13z"/>
<path d="M5293 3303 c9 -2 23 -2 30 0 6 3 -1 5 -18 5 -16 0 -22 -2 -12 -5z"/>
<path d="M1574 3276 c-3 -8 -4 -29 -2 -48 3 -29 4 -27 8 15 5 48 3 58 -6 33z"/>
<path d="M4620 3261 c0 -14 5 -18 20 -14 11 3 20 7 20 9 0 2 -9 8 -20 14 -17
9 -20 8 -20 -9z"/>
<path d="M4450 3146 c0 -14 5 -26 10 -26 6 0 10 7 10 15 0 8 0 18 1 22 0 4 -4
9 -10 11 -6 2 -11 -8 -11 -22z"/>
<path d="M1563 3030 c0 -134 0 -135 10 -58 6 51 6 98 -1 135 -8 52 -9 44 -9
-77z"/>
<path d="M4288 3121 c8 -4 13 -11 13 -15 -4 -26 2 -36 19 -36 16 0 20 7 20 30
0 27 -3 30 -32 30 -22 0 -29 -3 -20 -9z"/>
<path d="M3845 2405 c-5 -11 -10 -24 -12 -30 -3 -5 2 -2 10 8 10 12 17 14 22
8 8 -14 25 -14 25 -1 0 6 -6 10 -14 10 -8 0 -16 6 -19 13 -3 7 -7 5 -12 -8z"/>
<path d="M3825 2319 c-4 -6 -5 -12 -2 -15 2 -3 7 2 10 11 7 17 1 20 -8 4z"/>
<path d="M3777 2300 c3 -11 10 -23 16 -27 7 -4 8 0 4 11 -4 10 -7 22 -7 27 0
5 -4 9 -9 9 -5 0 -7 -9 -4 -20z"/>
<path d="M3860 2250 c0 -5 10 -15 23 -21 22 -12 22 -12 3 10 -21 23 -26 26
-26 11z"/>
<path d="M1760 2150 c34 -11 60 -11 35 0 -11 5 -29 8 -40 8 -16 0 -15 -2 5 -8z"/>
<path d="M5425 1843 c4 -10 10 -26 12 -35 3 -11 19 -20 42 -24 20 -3 49 -10
65 -15 16 -5 49 -9 72 -9 42 0 44 2 44 28 0 16 -6 36 -12 45 -11 14 -19 14
-55 5 -36 -10 -45 -9 -61 5 -23 21 -42 22 -42 3 0 -26 -23 -30 -41 -8 -21 26
-34 29 -24 5z"/>
</g>
</svg>
