<?xml version="1.0" standalone="no"?>
<!DOCTYPE svg PUBLIC "-//W3C//DTD SVG 20010904//EN"
 "http://www.w3.org/TR/2001/REC-SVG-20010904/DTD/svg10.dtd">
<svg version="1.0" xmlns="http://www.w3.org/2000/svg"
 width="601.000000pt" height="601.000000pt" viewBox="0 0 601.000000 601.000000"
 preserveAspectRatio="xMidYMid meet">
<metadata>
Created by potrace 1.14, written by Peter Selinger 2001-2017
</metadata>
<g transform="translate(0.000000,601.000000) scale(0.100000,-0.100000)"
fill="#000000" stroke="none">
<path d="M4 4463 c2 -852 7 -1576 11 -1610 5 -43 3 -63 -4 -63 -8 0 -11 -248
-11 -865 0 -687 3 -866 13 -864 29 4 38 -2 35 -23 -2 -15 -11 -24 -25 -26
l-23 -3 0 -455 c0 -387 2 -454 14 -454 8 0 24 -12 35 -26 25 -31 14 -54 -25
-54 -13 0 -24 -4 -24 -10 0 -7 757 -9 2243 -7 l2242 2 10 65 10 65 3 -68 3
-67 75 0 74 0 -5 38 c-3 20 -12 93 -21 162 -22 180 -40 251 -96 375 -89 199
-362 700 -404 742 -6 7 -33 49 -59 94 -25 44 -49 79 -52 76 -2 -3 6 -22 20
-44 13 -21 38 -65 57 -98 18 -33 46 -85 63 -115 82 -151 108 -211 97 -225 -10
-12 -35 18 -133 153 -66 92 -151 205 -189 251 -45 56 -68 92 -68 110 0 14 -18
78 -41 141 -22 63 -48 135 -57 160 l-16 45 -9 -35 c-5 -19 -13 -39 -18 -44
-12 -13 -49 22 -49 46 0 10 -39 75 -86 145 -194 288 -298 389 -544 533 -69 40
-129 77 -135 83 -32 30 305 -156 365 -202 19 -14 48 -32 64 -39 26 -12 28 -11
16 2 -24 29 9 17 63 -23 63 -46 214 -203 258 -269 18 -26 35 -49 38 -52 7 -6
81 -118 136 -205 21 -33 52 -82 70 -110 18 -27 54 -86 80 -129 26 -43 103
-163 170 -265 217 -331 368 -607 426 -778 33 -98 59 -272 59 -396 0 -127 0
-127 78 -127 l66 0 -22 20 c-12 11 -26 20 -31 20 -5 0 -10 8 -11 18 -5 73 -8
101 -12 108 -4 8 -4 106 1 125 0 4 8 6 17 5 9 0 19 5 22 13 3 8 0 11 -6 7 -6
-3 -14 -1 -17 5 -4 6 2 13 14 16 24 6 29 33 6 33 -19 0 -20 34 -2 52 8 7 12
19 9 26 -3 11 -1 11 17 0 22 -14 28 -28 11 -28 -5 0 -10 -7 -10 -16 0 -13 2
-13 13 -2 8 7 16 20 18 27 6 16 39 24 39 10 0 -5 -7 -9 -15 -9 -9 0 -12 -6 -8
-16 4 -11 8 -12 13 -4 5 8 9 4 13 -9 3 -12 13 -21 24 -20 14 0 15 2 3 7 -19 9
-20 43 -1 58 11 9 10 14 -10 27 -13 10 -18 17 -12 17 21 0 43 -12 43 -24 0 -7
7 -21 16 -32 8 -10 12 -13 8 -5 -5 9 -3 12 4 7 19 -11 14 -46 -5 -47 -11 0
-13 -3 -5 -6 14 -6 16 -39 2 -48 -13 -8 -1 -35 16 -35 12 0 11 -5 -3 -26 -15
-24 -17 -25 -24 -8 -4 11 -8 13 -8 5 -1 -11 -4 -11 -16 -1 -12 10 -15 9 -15
-6 0 -16 -2 -17 -10 -4 -8 13 -10 12 -10 -3 0 -27 24 -47 57 -47 22 0 25 -2
13 -10 -8 -5 -27 -10 -42 -10 -16 0 -28 -4 -28 -9 0 -5 9 -7 20 -4 11 3 28 -1
37 -8 12 -10 14 -10 9 -1 -10 17 6 15 30 -3 16 -13 16 -14 2 -9 -21 7 -21 6
-7 -34 6 -18 15 -30 20 -27 12 8 49 -17 49 -33 0 -9 6 -12 15 -8 9 3 15 0 15
-10 0 -8 4 -13 9 -9 5 3 16 -3 23 -14 13 -19 30 -20 471 -20 l457 -1 -1 2522
c0 1388 -3 2515 -7 2506 -4 -11 -12 -14 -20 -9 -17 10 -4 41 14 34 11 -4 14 7
13 58 -1 63 -1 64 -15 32 -7 -17 -17 -34 -22 -37 -12 -7 -102 23 -102 35 0 5
-34 9 -76 9 -101 0 -114 8 -114 70 0 52 -14 74 -58 91 -20 8 -32 5 -63 -17
-22 -15 -39 -32 -39 -38 0 -6 -5 -3 -11 8 -6 10 -9 38 -6 63 4 39 2 46 -17 53
-14 5 -26 3 -37 -6 -8 -8 -25 -14 -36 -14 -29 0 -19 38 13 51 38 14 28 33 -28
53 -29 10 -63 27 -74 38 -23 20 -69 25 -118 13 -43 -12 -64 36 -30 70 13 13
29 15 83 10 68 -7 76 -7 224 -6 62 1 95 -4 111 -14 20 -13 26 -13 54 0 25 13
60 15 196 11 l166 -5 0 70 0 70 -72 -2 c-145 -2 -242 3 -281 17 -29 10 -43 11
-53 3 -8 -7 -52 -10 -111 -9 -54 1 -155 3 -225 4 -79 1 -132 6 -139 13 -8 8
-21 8 -47 1 -22 -6 -119 -7 -256 -3 -122 4 -240 6 -263 6 -34 -2 -44 2 -54 20
-6 13 -20 32 -30 43 -19 20 -21 29 -24 101 -1 22 -3 52 -3 68 l-2 27 -489 0
-489 0 -1 -85 c-2 -140 -21 -158 -117 -115 -34 16 -55 19 -94 14 -40 -5 -55
-3 -83 15 -19 11 -41 21 -49 21 -10 0 -15 11 -16 32 0 18 -8 37 -16 44 -9 6
-13 13 -11 16 3 3 -6 17 -19 31 l-25 27 -863 -2 -862 -3 -12 -24 c-14 -28 -40
-45 -54 -36 -17 10 -11 20 20 33 16 8 30 18 30 23 0 5 -263 9 -650 9 l-650 0
4 -1547z m1811 1363 c21 8 19 -23 -1 -34 -26 -15 -54 -3 -54 23 0 27 21 39 33
19 4 -7 14 -11 22 -8z m-910 -99 c79 -6 93 -4 115 13 34 26 40 25 40 -10 0
-16 11 -46 25 -67 23 -34 25 -43 19 -103 -5 -56 -3 -69 14 -90 18 -22 28 -25
130 -30 l110 -6 48 -44 c57 -51 84 -80 84 -90 0 -3 9 -16 20 -28 17 -18 19
-26 10 -42 -6 -11 -16 -21 -23 -21 -42 -5 -58 -8 -113 -24 -35 -9 -75 -29 -92
-45 -17 -15 -35 -30 -39 -32 -4 -1 -28 -30 -52 -63 -25 -33 -48 -62 -52 -65
-4 -3 -11 -21 -16 -40 -11 -41 -21 -42 -128 -11 -38 11 -94 26 -124 35 -29 8
-55 16 -57 19 -2 2 -6 149 -9 328 -3 178 -7 337 -9 352 -5 37 -18 49 -55 51
-17 0 -31 3 -31 6 1 14 19 32 28 26 6 -3 13 -2 17 4 4 6 14 5 28 -4 12 -7 63
-16 112 -19z m885 -113 c0 -32 -28 -31 -36 0 -3 14 -3 30 1 36 11 17 35 -8 35
-36z m1208 -201 c-10 -2 -26 -2 -35 0 -10 3 -2 5 17 5 19 0 27 -2 18 -5z m282
-35 c203 -38 342 -96 482 -199 149 -111 244 -244 324 -454 25 -66 58 -154 74
-195 77 -197 109 -338 96 -423 -4 -26 -11 -47 -15 -47 -4 0 -12 55 -18 123
-10 117 -15 145 -28 188 -10 30 -25 12 -25 -31 0 -45 9 -72 21 -64 5 3 8 -16
7 -41 -2 -27 -7 -45 -14 -45 -7 0 -15 -8 -18 -17 -2 -10 -2 13 1 51 4 44 2 67
-4 63 -6 -4 -15 24 -23 65 -27 153 -89 298 -181 426 -71 99 -98 130 -251 296
-23 26 -23 6 0 -25 22 -29 63 -99 58 -99 -2 0 -33 39 -69 88 -73 97 -133 160
-121 127 5 -14 -6 -7 -34 19 -35 33 -42 37 -48 23 -10 -27 -24 -19 -24 13 0
25 6 33 31 44 l31 13 -49 20 c-86 37 -281 86 -418 106 -16 3 2 2 40 0 39 -2
117 -13 175 -25z m170 -145 c0 -14 -19 -38 -25 -32 -8 8 5 39 16 39 5 0 9 -3
9 -7z m710 -518 c17 -33 37 -82 45 -110 7 -27 18 -63 24 -78 6 -16 11 -40 10
-55 0 -17 -9 2 -23 48 -32 103 -85 238 -97 245 -5 4 -9 11 -9 18 0 18 15 -3
50 -68z m555 -95 c0 -19 -6 -26 -23 -28 -20 -3 -23 -8 -18 -28 8 -31 -15 -76
-50 -99 -23 -15 -28 -15 -40 -3 -24 24 -31 73 -21 153 3 29 11 32 85 31 65 -1
67 -2 67 -26z m-821 -27 c25 -49 54 -150 61 -210 3 -32 8 -69 11 -83 4 -25 4
-25 -71 -25 -41 0 -75 4 -75 8 0 4 9 58 19 120 11 62 23 136 26 165 4 28 9 52
11 52 2 0 10 -12 18 -27z m-89 -154 c-15 -90 -28 -166 -31 -170 -2 -4 -15 -9
-30 -12 -22 -4 -25 -2 -21 17 9 44 102 334 105 331 2 -2 -8 -77 -23 -166z
m1658 112 c18 -7 21 -17 22 -84 2 -89 -1 -92 -94 -88 -68 3 -73 6 -60 35 8 18
7 30 -5 53 -15 31 -16 68 -2 92 9 13 95 8 139 -8z m-1199 -233 c4 -38 3 -55
-3 -43 -4 11 -11 52 -14 90 -4 43 -3 60 3 43 4 -14 11 -55 14 -90z m-364 -127
c0 -5 -5 -32 -12 -61 -8 -36 -16 -50 -27 -48 -20 4 -23 85 -3 104 15 16 42 19
42 5z m257 -63 c-3 -8 -6 -5 -6 6 -1 11 2 17 5 13 3 -3 4 -12 1 -19z m-228
-62 c-6 -36 -15 -66 -20 -66 -12 0 -12 0 7 76 21 82 29 77 13 -10z m217 -6
c-2 -45 -18 -81 -30 -69 -4 4 26 119 31 119 1 0 0 -23 -1 -50z m-242 -152 c-4
-55 -2 -82 10 -110 18 -42 134 -170 177 -195 33 -20 29 -34 -33 -126 -40 -57
-43 -67 -41 -119 2 -51 0 -59 -20 -69 -30 -16 -28 -13 -34 -56 -4 -26 -15 -47
-38 -68 -25 -23 -35 -44 -43 -85 -16 -84 -19 -120 -10 -120 4 0 8 13 8 29 0
32 16 48 45 45 11 -1 70 -7 130 -14 61 -6 129 -13 153 -16 24 -2 71 -8 105
-13 34 -5 107 -13 162 -17 55 -4 105 -8 110 -9 6 0 30 -7 55 -15 25 -7 49 -12
55 -11 17 4 141 -10 154 -18 6 -4 9 -15 5 -24 -3 -9 -10 -14 -15 -12 -4 3 -26
-3 -49 -14 -22 -10 -40 -15 -40 -10 0 5 -9 9 -20 9 -11 0 -20 4 -20 8 0 5 -7
9 -15 9 -8 0 -11 -5 -8 -10 4 -6 0 -8 -9 -4 -9 3 -25 -1 -37 -9 -12 -8 -26
-12 -31 -9 -6 3 -10 -2 -10 -12 0 -10 -4 -14 -8 -8 -13 18 -83 10 -95 -11 -5
-10 -11 -20 -12 -22 -1 -1 -27 -12 -56 -22 -55 -20 -119 -27 -119 -12 0 9 -2
10 -70 15 -25 2 -50 6 -55 9 -10 6 -60 15 -135 23 -24 3 -60 10 -80 15 -19 5
-51 11 -70 14 -19 2 -49 9 -67 14 -17 6 -33 9 -35 8 -2 -2 -11 6 -20 16 -17
17 -16 18 22 24 35 6 89 44 62 44 -6 0 -14 -4 -17 -10 -3 -5 -22 -10 -41 -10
-29 0 -34 4 -34 23 0 12 -11 78 -24 147 -13 69 -32 190 -41 270 -9 80 -20 180
-25 222 -5 43 -7 84 -4 92 3 9 -3 28 -14 43 -25 36 -72 174 -72 213 0 31 17
41 26 15 8 -19 33 -19 58 0 12 9 42 15 73 15 46 0 53 -3 53 -19 0 -26 20 -31
47 -13 13 8 30 11 39 8 13 -5 14 -4 6 7 -7 8 -9 17 -5 20 18 18 22 1 17 -65z
m-2164 -99 c0 -16 -8 -19 -45 -19 -25 0 -45 3 -45 6 0 14 31 29 60 30 23 1 30
-3 30 -17z m-109 -3 c5 3 9 0 9 -6 0 -5 -12 -10 -27 -10 -16 1 -37 0 -47 -2
-10 -2 -21 2 -23 9 -3 7 7 11 27 11 16 -1 33 2 37 6 4 4 9 2 11 -3 2 -6 8 -9
13 -5z m156 -2 c-3 -3 -12 -4 -19 -1 -8 3 -5 6 6 6 11 1 17 -2 13 -5z m-452
-33 c-3 -6 -11 -8 -17 -5 -6 4 -5 9 3 15 16 10 23 4 14 -10z m4218 -153 c20
-15 30 -91 18 -134 -7 -28 -10 -29 -68 -30 l-60 0 0 45 c0 25 -2 58 -3 73 -1
16 3 35 10 43 15 18 80 20 103 3z m-867 -63 c-4 -27 -7 -57 -8 -65 -1 -14 -22
-40 -32 -40 -2 0 -7 24 -11 53 -8 65 6 106 36 104 19 -1 21 -5 15 -52z m-496
-114 c14 -9 23 -101 13 -128 -8 -21 -22 -15 -16 6 3 11 -4 32 -16 48 -13 19
-18 37 -14 56 6 29 10 32 33 18z m492 -63 c3 -16 1 -31 -3 -34 -5 -2 -6 -11
-2 -19 3 -10 -2 -15 -16 -15 -12 0 -21 5 -21 10 0 6 5 10 11 10 6 0 3 7 -5 16
-18 18 -21 34 -6 34 6 0 10 6 10 13 0 27 28 13 32 -15z m-4473 9 c12 -15 9
-95 -5 -120 -16 -29 -37 -1 -44 55 -6 53 2 76 26 78 6 0 17 -6 23 -13z m5342
-59 c-10 -23 -10 -23 -10 5 -1 18 -6 27 -18 28 -15 0 -15 2 2 8 26 11 38 -9
26 -41z m-57 28 c-4 -11 0 -13 15 -9 17 4 20 2 15 -11 -3 -9 -10 -14 -14 -11
-5 3 -16 -2 -24 -11 -14 -14 -16 -14 -16 0 0 10 -6 13 -17 9 -16 -6 -16 -5 -4
10 11 14 11 17 0 18 -8 1 -3 5 11 9 37 12 40 11 34 -4z m-3929 -46 c5 -8 -66
-22 -73 -15 -3 3 0 11 7 18 11 14 57 12 66 -3z m-301 -23 c-1 -9 2 -17 7 -17
5 0 6 -7 3 -15 -8 -20 -41 -19 -52 2 -7 11 -6 23 2 35 13 22 42 19 40 -5z
m3416 -8 c0 -5 -10 -9 -21 -9 -18 0 -19 2 -9 15 12 15 30 12 30 -6z m-464 -1
c4 -7 3 -8 -4 -4 -8 5 -11 0 -10 -11 3 -39 -3 -60 -17 -60 -17 0 -19 24 -5 61
10 28 24 33 36 14z m1284 -8 c-8 -5 -3 -10 12 -14 23 -6 23 -6 3 -23 -16 -12
-16 -14 -3 -10 10 3 20 1 24 -5 4 -6 3 -8 -3 -5 -13 8 -26 -20 -16 -35 3 -7 1
-8 -5 -4 -7 4 -12 3 -12 -2 0 -6 6 -12 14 -15 9 -4 12 -14 9 -27 -4 -16 -8
-18 -14 -8 -7 10 -9 10 -9 -2 0 -9 -9 -16 -20 -17 -18 -2 -25 8 -21 31 1 4 -3
14 -9 21 -8 9 -8 15 0 20 6 3 8 11 5 16 -4 5 2 9 12 10 14 0 15 2 3 7 -9 4
-15 19 -14 37 2 43 1 43 30 37 16 -3 21 -7 14 -12z m-820 -25 c0 -8 -7 -15
-15 -15 -8 0 -15 7 -15 15 0 8 7 15 15 15 8 0 15 -7 15 -15z m-3381 -19 c9
-11 9 -15 -1 -19 -9 -4 -10 -8 -3 -14 17 -13 11 -143 -6 -154 -10 -6 -10 -9
-1 -9 6 0 12 -7 12 -16 0 -11 -6 -15 -20 -11 -11 3 -20 0 -20 -6 0 -7 -7 1
-15 17 -9 16 -13 36 -10 43 9 24 -36 11 -66 -19 -33 -34 -47 -35 -51 -5 -3 19
26 124 38 136 5 5 36 9 78 10 25 1 28 4 24 26 -5 21 2 32 23 34 4 1 12 -5 18
-13z m3371 -33 c0 -26 -1 -26 -14 -7 -11 14 -11 21 -3 26 17 11 17 11 17 -19z
m-2482 -183 c28 0 33 -3 22 -10 -12 -8 -12 -10 -1 -10 8 0 11 -3 8 -7 -4 -3
-2 -12 3 -19 8 -8 6 -16 -5 -27 -8 -9 -15 -20 -15 -26 0 -6 -5 -11 -11 -11 -6
0 -17 -7 -25 -15 -23 -23 -31 -18 -38 20 -4 20 -11 33 -16 30 -5 -3 -8 4 -7
15 1 13 6 19 15 15 7 -2 10 0 7 5 -4 6 -1 24 7 41 8 19 14 24 16 14 2 -10 15
-15 40 -15z m22 26 c0 -2 -7 -7 -16 -10 -8 -3 -12 -2 -9 4 6 10 25 14 25 6z
m-97 -21 c-3 -9 -8 -14 -10 -11 -3 3 -2 9 2 15 9 16 15 13 8 -4z m1256 -52
c-9 -2 -26 -22 -38 -44 -12 -21 -27 -37 -32 -34 -5 4 -9 -3 -9 -14 0 -12 -5
-21 -11 -21 -6 0 -9 -7 -5 -15 3 -8 3 -21 0 -29 -5 -12 -11 -13 -30 -4 -25 12
-30 23 -14 33 5 3 7 13 4 23 -5 14 -4 15 5 2 5 -8 13 -11 17 -7 4 4 2 13 -4
19 -17 17 -15 38 3 38 8 0 17 11 21 25 5 20 11 24 26 19 14 -4 18 -2 14 5 -5
7 5 11 31 10 21 -1 31 -3 22 -6z m94 0 c-7 -2 -19 -2 -25 0 -7 3 -2 5 12 5 14
0 19 -2 13 -5z m63 -6 c4 -4 0 -7 -9 -7 -9 0 -18 4 -21 9 -7 10 20 9 30 -2z
m189 -17 c4 -7 -8 -8 -37 -4 -57 9 -61 14 -10 14 22 0 44 -5 47 -10z m45 0 c0
-5 -7 -10 -15 -10 -8 0 -15 5 -15 10 0 6 7 10 15 10 8 0 15 -4 15 -10z m-1643
-52 c-3 -8 -6 -5 -6 6 -1 11 2 17 5 13 3 -3 4 -12 1 -19z m91 -9 c-10 -5 -18
-17 -18 -26 0 -14 2 -14 19 1 19 17 19 17 14 -3 -6 -24 -28 -28 -40 -7 -4 7
-15 16 -23 19 -10 3 -7 6 8 6 13 1 20 5 17 11 -3 6 4 10 17 10 20 -1 21 -2 6
-11z m-51 -39 c12 0 12 -2 -2 -16 -9 -9 -13 -19 -10 -22 3 -4 10 0 15 8 8 12
10 12 10 1 0 -11 3 -11 14 -1 19 15 -34 -136 -64 -185 -16 -26 -24 -32 -34
-23 -19 18 15 193 40 202 8 3 14 13 14 21 0 9 -4 13 -10 10 -11 -7 -14 8 -3
19 4 4 9 2 11 -3 2 -6 10 -11 19 -11z m-1177 -20 c0 -5 -4 -10 -10 -10 -5 0
-10 5 -10 10 0 6 5 10 10 10 6 0 10 -4 10 -10z m2764 -55 c-4 -8 -10 -15 -14
-15 -5 0 -10 -8 -12 -17 -3 -16 -6 -15 -16 5 -12 20 -11 22 10 22 19 0 20 2 8
10 -12 8 -11 10 7 10 16 0 21 -4 17 -15z m598 -61 c16 -3 26 -10 23 -14 -3 -5
-1 -11 4 -14 5 -4 7 -60 5 -129 -4 -130 -4 -137 -3 -164 0 -10 -2 -58 -6 -107
-6 -94 -18 -125 -38 -103 -15 15 -16 97 -2 97 6 0 3 5 -5 11 -10 7 -11 12 -4
15 8 3 9 19 3 51 -7 35 -6 49 3 55 10 6 10 8 1 8 -7 0 -13 12 -13 28 0 19 -3
23 -9 13 -7 -11 -15 -9 -42 10 l-34 24 28 3 c15 2 27 9 27 18 0 8 7 14 15 14
8 0 15 5 15 10 0 6 -8 10 -17 10 -12 0 -14 3 -6 8 8 5 9 12 2 22 -7 13 -10 13
-18 1 -5 -7 -11 -9 -14 -4 -3 5 -2 15 4 23 12 20 11 28 -3 27 -7 0 -22 1 -33
2 -17 2 -15 4 10 16 17 8 22 13 11 12 -10 -1 -21 4 -24 12 -3 9 0 11 8 6 9 -5
11 -4 6 4 -4 6 0 18 8 27 9 8 16 12 16 8 0 -5 5 -3 12 4 7 7 19 10 28 8 8 -3
27 -8 42 -12z m-592 -16 c0 -13 -23 -5 -28 10 -2 7 2 10 12 6 9 -3 16 -11 16
-16z m-2302 -160 c-2 -28 -7 -33 -28 -33 -16 0 -26 6 -28 18 -6 30 6 47 33 47
24 0 26 -3 23 -32z m212 -72 c0 -20 -19 -31 -32 -18 -6 6 -7 15 -4 21 10 16
36 13 36 -3z m-496 -11 c3 -9 0 -15 -9 -15 -9 0 -12 6 -9 15 4 8 7 15 9 15 2
0 5 -7 9 -15z m1968 -273 c48 -31 242 -196 325 -276 120 -115 205 -219 224
-274 38 -110 104 -273 151 -371 27 -58 72 -173 100 -255 l51 -150 -6 -190 c-6
-198 -23 -366 -38 -366 -5 0 -9 32 -9 71 0 187 -33 498 -71 674 -26 120 -105
358 -130 389 -24 31 -155 139 -236 195 -34 23 -64 52 -67 64 -10 41 -96 175
-199 314 -151 203 -160 218 -95 175z m-1615 -289 c-4 -3 -2 -12 4 -19 6 -8 8
-29 4 -51 -12 -75 -13 -103 -4 -103 5 0 9 -7 9 -15 0 -8 -4 -15 -10 -15 -5 0
-10 5 -10 10 0 6 -6 10 -14 10 -22 0 -28 35 -13 72 8 18 13 49 12 68 -1 19 3
38 9 42 14 10 22 10 13 1z m193 -113 c-13 -8 -13 -10 -1 -10 8 0 12 -2 9 -5
-3 -3 -13 -3 -22 1 -15 6 -15 7 1 19 10 8 20 11 23 9 2 -3 -2 -9 -10 -14z
m3110 1 c6 -7 25 -13 55 -16 11 -1 19 -8 18 -14 -2 -6 2 -11 7 -11 6 0 10 6
11 13 0 10 2 10 6 0 2 -7 10 -13 17 -13 7 0 20 -6 30 -13 16 -12 16 -14 2 -26
-14 -12 -16 -11 -10 5 5 16 4 16 -5 4 -8 -11 -7 -18 2 -25 17 -12 17 -113 1
-123 -17 -11 -28 -52 -13 -52 8 0 9 -3 0 -14 -9 -10 -8 -16 3 -25 11 -10 13
-19 5 -38 -5 -14 -7 -34 -4 -44 5 -15 3 -17 -12 -12 -16 6 -17 5 -3 -12 12
-15 12 -17 1 -10 -11 6 -13 4 -8 -8 4 -11 1 -17 -7 -17 -24 0 -27 -29 -4 -41
19 -10 19 -12 5 -21 -21 -11 -22 -32 -2 -24 8 3 15 1 15 -4 0 -6 -5 -10 -12
-10 -6 0 -1 -11 12 -25 13 -14 18 -25 11 -25 -14 0 -11 -31 4 -42 6 -4 2 -8
-7 -8 -10 0 -18 -6 -18 -14 0 -22 20 -30 21 -9 0 11 3 13 6 5 3 -7 -2 -24 -11
-37 -18 -28 -21 -45 -6 -45 6 0 10 7 10 15 0 8 5 15 10 15 16 0 12 -18 -10
-40 -20 -20 -27 -36 -11 -26 5 3 11 -3 14 -15 4 -16 3 -18 -9 -8 -9 7 -14 8
-14 1 0 -6 5 -14 10 -17 6 -4 7 -12 1 -22 -4 -9 -6 -25 -4 -37 4 -17 3 -18 -6
-6 -9 13 -11 12 -11 -5 0 -11 4 -34 9 -52 7 -22 6 -33 -2 -37 -7 -2 -5 -5 4
-5 11 -1 19 -13 23 -36 8 -40 2 -57 -19 -49 -10 4 -12 0 -8 -15 3 -12 10 -21
16 -21 6 0 7 -3 4 -6 -4 -4 -13 -1 -21 5 -18 15 -56 -2 -56 -24 0 -10 -12 -15
-37 -16 -37 -1 -37 -2 -8 -8 l30 -7 -34 -7 c-39 -8 -44 -6 -35 17 3 9 16 16
28 17 20 0 20 1 1 8 -11 5 -27 6 -35 3 -11 -5 -11 -2 3 12 9 9 17 23 16 29 0
9 -2 8 -6 0 -9 -23 -25 -14 -17 9 6 21 5 22 -11 8 -16 -13 -18 -13 -13 0 3 8
15 15 27 14 11 0 21 3 21 8 0 4 -5 8 -11 8 -8 0 -8 5 1 15 9 10 9 15 1 15 -6
0 -11 10 -11 23 0 18 2 19 10 7 5 -8 10 -10 10 -5 0 17 -18 40 -26 33 -3 -4
-6 -19 -6 -33 0 -14 -4 -28 -9 -31 -12 -7 -11 28 1 60 6 17 6 26 0 26 -6 0
-10 7 -10 15 0 8 4 15 9 15 5 0 12 12 15 26 4 16 12 24 20 21 7 -3 18 -2 25 3
9 5 4 9 -13 12 -15 3 -26 1 -26 -6 0 -6 -7 -2 -15 8 -8 10 -12 22 -10 27 3 4
1 10 -3 13 -13 8 -15 126 -2 126 6 0 8 5 4 11 -3 6 0 15 7 20 10 6 11 9 2 9
-7 0 -13 7 -13 15 0 8 5 15 10 15 6 0 10 8 10 18 0 14 -2 15 -10 2 -5 -8 -10
-10 -10 -5 0 6 4 17 10 25 5 8 5 19 0 25 -4 5 -8 21 -7 35 0 14 -3 36 -7 49
-6 16 -5 21 3 17 16 -10 13 10 -3 24 -23 18 -13 380 11 423 5 9 64 -1 73 -12z
m-3194 -3 c8 -7 21 -19 29 -25 11 -10 14 -10 18 0 8 23 36 -12 32 -41 -2 -15
-6 -63 -10 -107 -4 -44 -11 -87 -16 -97 -14 -26 -55 -22 -82 8 -28 32 -41 125
-17 123 32 -3 40 2 40 25 0 14 -5 37 -11 53 -25 66 -19 90 17 61z m1605 -101
c24 -12 70 -41 101 -64 72 -54 183 -182 170 -195 -6 -6 -38 18 -89 69 -80 80
-229 187 -280 203 -26 8 -25 8 13 9 24 1 59 -8 85 -22z m2218 -127 c10 -14 11
-21 4 -16 -9 5 -14 0 -15 -16 -4 -63 -3 -78 5 -78 5 0 4 -7 -3 -15 -9 -10 -9
-15 -1 -15 13 0 10 -24 -9 -62 -15 -31 -30 -37 -30 -12 0 8 5 12 11 8 7 -4 9
0 5 12 -28 94 -27 153 3 155 14 0 14 1 1 7 -8 4 -14 14 -14 22 1 8 2 21 3 28
1 19 22 10 40 -18z m429 -181 c3 -11 2 -11 -7 1 -9 13 -11 13 -11 -2 0 -10 5
-18 10 -18 6 0 10 -5 10 -11 0 -7 -10 -9 -25 -5 -14 4 -25 2 -25 -4 0 -5 9
-10 20 -10 11 0 20 -6 20 -13 0 -9 -16 -13 -48 -14 -39 0 -48 3 -49 18 -1 12
3 16 13 12 9 -3 14 2 14 17 0 11 4 19 10 15 5 -3 17 3 27 14 20 22 35 22 41 0z
m-471 -91 c-3 -8 -6 -5 -6 6 -1 11 2 17 5 13 3 -3 4 -12 1 -19z m-3635 -189
c-2 -8 -4 -21 -5 -31 -1 -13 -9 -16 -37 -13 -19 1 -41 3 -47 4 -25 2 -13 22
16 27 17 4 32 12 35 19 6 18 42 11 38 -6z m-1507 -39 c3 -5 1 -10 -4 -10 -6 0
-11 5 -11 10 0 6 2 10 4 10 3 0 8 -4 11 -10z m5153 -177 c-2 -13 3 -18 22 -17
22 2 22 0 7 -11 -9 -7 -17 -17 -17 -24 0 -6 -7 -11 -16 -11 -12 0 -15 6 -10
24 4 15 1 26 -6 28 -6 2 -8 10 -4 16 11 18 27 14 24 -5z m56 1 c3 -8 2 -12 -4
-9 -6 3 -10 10 -10 16 0 14 7 11 14 -7z m-555 -228 c8 -9 7 -18 -3 -31 -12
-17 -12 -21 3 -33 9 -7 10 -11 4 -7 -7 3 -13 1 -13 -5 0 -6 -5 -8 -10 -5 -6 4
-8 10 -5 15 3 5 -4 15 -16 24 -17 12 -20 18 -11 29 7 8 10 16 7 18 -2 3 4 5
15 6 10 1 23 -4 29 -11z m-72 -52 c-3 -3 -12 -4 -19 -1 -8 3 -5 6 6 6 11 1 17
-2 13 -5z m-70 -10 c-3 -3 -12 -4 -19 -1 -8 3 -5 6 6 6 11 1 17 -2 13 -5z m35
-9 c0 -5 -5 -11 -11 -13 -6 -2 -11 4 -11 13 0 9 5 15 11 13 6 -2 11 -8 11 -13z
m78 -45 c0 -5 -4 -10 -10 -10 -5 0 -10 5 -10 10 0 6 5 10 10 10 6 0 10 -4 10
-10z m50 -54 c0 -3 -4 -8 -10 -11 -5 -3 -10 -1 -10 4 0 6 5 11 10 11 6 0 10
-2 10 -4z m-15 -236 c-3 -5 -12 -10 -18 -10 -7 0 -6 4 3 10 19 12 23 12 15 0z
m504 -27 c2 -2 -5 -3 -16 -3 -11 0 -20 7 -20 15 0 12 3 12 16 3 9 -7 18 -14
20 -15z m-4204 -2 c3 -6 -3 -15 -14 -20 -15 -8 -20 -7 -25 5 -4 12 -2 15 9 10
8 -3 15 -1 15 4 0 13 7 13 15 1z m4572 -17 c-3 -3 -12 -4 -19 -1 -8 3 -5 6 6
6 11 1 17 -2 13 -5z m-5406 -45 c10 -14 14 -28 9 -33 -5 -5 -7 -14 -4 -20 3
-7 -15 -12 -52 -14 -37 -2 -54 0 -49 7 3 6 2 11 -3 11 -6 0 -13 12 -17 27 -8
35 14 52 62 48 24 -1 42 -10 54 -26z m5019 -49 c0 -5 -2 -10 -4 -10 -3 0 -8 5
-11 10 -3 6 -1 10 4 10 6 0 11 -4 11 -10z m24 -24 c-7 -17 -42 -28 -50 -15 -3
5 5 13 18 18 33 14 38 13 32 -3z m-329 -16 c3 -5 1 -10 -4 -10 -6 0 -11 5 -11
10 0 6 2 10 4 10 3 0 8 -4 11 -10z m-3785 -11 c0 -5 5 -7 11 -3 6 3 15 0 20
-7 6 -11 11 -11 21 -1 6 6 17 12 23 12 5 0 1 -6 -10 -13 -29 -17 -135 -18
-135 -1 0 7 12 15 28 17 15 2 30 5 35 6 4 0 7 -4 7 -10z m255 -9 c3 -5 1 -10
-4 -10 -6 0 -11 5 -11 10 0 6 2 10 4 10 3 0 8 -4 11 -10z"/>
<path d="M4162 4429 c6 -16 12 -28 14 -26 5 5 -13 57 -20 57 -3 0 0 -14 6 -31z"/>
<path d="M3808 3899 c-14 -8 -18 -23 -18 -64 0 -46 3 -55 18 -55 14 0 17 11
20 65 1 36 1 65 0 65 -2 0 -11 -5 -20 -11z"/>
<path d="M4936 1657 c3 -10 9 -15 12 -12 3 3 0 11 -7 18 -10 9 -11 8 -5 -6z"/>
<path d="M4930 1439 c0 -5 5 -7 10 -4 6 3 10 8 10 11 0 2 -4 4 -10 4 -5 0 -10
-5 -10 -11z"/>
<path d="M4840 1090 c0 -5 11 -10 24 -10 14 0 28 5 31 10 4 6 -7 10 -24 10
-17 0 -31 -4 -31 -10z"/>
<path d="M4895 1070 c-3 -5 -1 -10 4 -10 6 0 11 5 11 10 0 6 -2 10 -4 10 -3 0
-8 -4 -11 -10z"/>
<path d="M4845 949 c-16 -6 -14 -8 13 -8 33 -1 41 4 20 12 -7 2 -22 1 -33 -4z"/>
<path d="M4895 920 c-3 -5 1 -10 9 -10 9 0 16 5 16 10 0 6 -4 10 -9 10 -6 0
-13 -4 -16 -10z"/>
<path d="M4831 904 c0 -11 3 -14 6 -6 3 7 2 16 -1 19 -3 4 -6 -2 -5 -13z"/>
<path d="M4777 893 c-10 -9 -9 -33 1 -33 4 0 8 9 8 20 0 23 0 22 -9 13z"/>
<path d="M4865 750 c-3 -5 -1 -10 4 -10 6 0 11 5 11 10 0 6 -2 10 -4 10 -3 0
-8 -4 -11 -10z"/>
<path d="M4916 718 c3 -4 9 -8 15 -8 5 0 9 4 9 8 0 5 -7 9 -15 9 -8 0 -12 -4
-9 -9z"/>
<path d="M4856 693 c-11 -12 -6 -19 14 -20 11 -1 20 2 20 7 0 10 -26 20 -34
13z"/>
<path d="M4820 660 c0 -5 5 -10 10 -10 6 0 10 5 10 10 0 6 -4 10 -10 10 -5 0
-10 -4 -10 -10z"/>
<path d="M4895 630 c3 -5 1 -10 -5 -10 -6 0 -8 -5 -5 -10 5 -8 11 -7 21 1 14
12 10 29 -7 29 -6 0 -7 -4 -4 -10z"/>
<path d="M3487 2233 c45 -49 190 -228 217 -270 12 -18 25 -33 29 -33 5 0 -2
14 -15 31 -13 17 -32 44 -43 59 -52 73 -205 250 -216 250 -4 0 8 -17 28 -37z"/>
<path d="M3787 1848 c26 -42 51 -77 55 -77 9 -1 -44 85 -77 124 -14 17 -4 -5
22 -47z"/>
<path d="M3721 1884 c0 -11 3 -14 6 -6 3 7 2 16 -1 19 -3 4 -6 -2 -5 -13z"/>
<path d="M3856 1748 c4 -7 36 -57 71 -111 35 -53 63 -101 63 -106 0 -5 7 -15
16 -22 11 -9 9 -1 -6 26 -33 58 -141 225 -147 225 -2 0 -1 -6 3 -12z"/>
</g>
</svg>
